<?xml version="1.0" encoding="utf-8"?>
<!-- Generator: Adobe Illustrator 26.2.1, SVG Export Plug-In . SVG Version: 6.00 Build 0)  -->
<svg version="1.1" id="Livello_1" xmlns="http://www.w3.org/2000/svg" xmlns:xlink="http://www.w3.org/1999/xlink" x="0px" y="0px"
	 viewBox="0 0 22.4 19.9" style="enable-background:new 0 0 22.4 19.9;" xml:space="preserve">
<style type="text/css">
	.st0{fill:#5F5F5E;}
</style>
<g>
	<path class="st0" d="M8.9,12.1l10.3-1.4c0.8-0.1,1.5-0.7,1.7-1.4l1.4-4.9c0.2-0.6,0.1-1.2-0.3-1.8c-0.4-0.5-1-0.8-1.6-0.8H5.5
		L5,0.6C4.9,0.2,4.6,0,4.3,0H0.9C0.4,0,0.1,0.4,0.1,0.8s0.4,0.8,0.8,0.8h2.8L8,15c0.1,0.3,0.4,0.6,0.8,0.6h12.1
		c0.4,0,0.8-0.4,0.8-0.8c0-0.4-0.4-0.8-0.8-0.8H9.3l-0.6-1.8l0,0C8.8,12.1,8.8,12.1,8.9,12.1z M6,3.5h14.4c0.2,0,0.3,0.1,0.3,0.2
		c0,0.1,0.1,0.2,0.1,0.3l-1.4,4.9c0,0.2-0.2,0.3-0.3,0.3L8.8,10.6c-0.1,0-0.3,0.1-0.4,0.2L6,3.5z"/>
	<path class="st0" d="M10.6,16.9c-0.8,0-1.5,0.7-1.5,1.5s0.7,1.5,1.5,1.5s1.5-0.7,1.5-1.5S11.5,16.9,10.6,16.9z"/>
	<path class="st0" d="M19.8,16.9c-0.8,0-1.5,0.7-1.5,1.5s0.7,1.5,1.5,1.5s1.5-0.7,1.5-1.5S20.7,16.9,19.8,16.9z"/>
</g>
</svg>
