<?xml version="1.0" encoding="utf-8"?>
<!-- Generator: Adobe Illustrator 26.2.1, SVG Export Plug-In . SVG Version: 6.00 Build 0)  -->
<svg version="1.1" id="Livello_1" xmlns="http://www.w3.org/2000/svg" xmlns:xlink="http://www.w3.org/1999/xlink" x="0px" y="0px"
	 viewBox="0 0 20.7 20" style="enable-background:new 0 0 20.7 20;" xml:space="preserve">
<style type="text/css">
	.st0{fill:#5F5F5E;}
</style>
<path class="st0" d="M12.4,13.1c-0.5,0-0.9,0.1-1.2,0.4c-0.3,0.3-0.5,0.7-0.5,1.1c0,0.4,0.2,0.8,0.5,1.1c0.3,0.3,0.7,0.5,1.2,0.5
	s0.9-0.2,1.2-0.5c0.3-0.3,0.5-0.7,0.5-1.1c0-0.4-0.2-0.8-0.5-1.1C13.3,13.3,12.9,13.1,12.4,13.1z M15.8,0H8.1C5.5,0,3.4,2,3.3,4.6
	v0.1v1.2L0.2,9.5C0.1,9.6,0,9.8,0,10s0.1,0.4,0.2,0.5l3.2,3.6v1.1c0,2.6,2.1,4.8,4.8,4.8h7.7c2.6,0,4.8-2.1,4.8-4.8V4.8
	C20.6,2.1,18.5,0,15.8,0z M19,15.2c0,1.8-1.4,3.2-3.1,3.2H8.2c-1.8,0-3.2-1.5-3.2-3.2v-1.3c0-0.2,0-0.4-0.2-0.6l-3-3.3l2.9-3.3
	c0,0,0.1-0.1,0.1-0.2c0.1-0.1,0.1-0.3,0.1-0.4V4.8c0-1.8,1.5-3.2,3.2-3.2h7.7c1.8,0,3.2,1.5,3.2,3.2V15.2L19,15.2z M15.5,4.6
	c-0.8-0.6-1.9-0.9-3.2-0.9c-1.1,0-2.1,0.2-3,0.6c-0.8,0.4-1.5,1-2,1.7l2.1,1.2c0.3-0.4,0.6-0.7,1.1-1C10.9,6.1,11.4,6,11.9,6
	c0.6,0,1,0.1,1.4,0.4c0.3,0.3,0.5,0.6,0.5,1c0,0.3-0.1,0.6-0.3,0.8c-0.2,0.2-0.5,0.5-0.8,0.9c-0.5,0.5-0.9,0.9-1.2,1.3
	c-0.3,0.4-0.4,0.9-0.4,1.5h2.6c0-0.4,0.1-0.7,0.3-1c0.2-0.3,0.5-0.6,0.9-1c0.4-0.3,0.7-0.6,0.9-0.9c0.2-0.3,0.4-0.6,0.6-0.9
	c0.2-0.4,0.2-0.8,0.2-1.3C16.7,5.9,16.3,5.1,15.5,4.6z"/>
</svg>
