<?xml version="1.0" encoding="utf-8"?>
<!-- Generator: Adobe Illustrator 26.2.1, SVG Export Plug-In . SVG Version: 6.00 Build 0)  -->
<svg version="1.1" id="Livello_1" xmlns="http://www.w3.org/2000/svg" xmlns:xlink="http://www.w3.org/1999/xlink" x="0px" y="0px"
	 viewBox="0 0 17 19.8" style="enable-background:new 0 0 17 19.8;" xml:space="preserve">
<style type="text/css">
	.st0{fill:#5F5F5E;}
</style>
<path class="st0" d="M12.3,9h-1c1.3-0.9,2.1-2.4,2.1-4c0-2.8-2.2-5-4.9-5S3.6,2.2,3.6,4.9c0,1.7,0.8,3.1,2.1,4h-1
	C2.1,8.9,0,11,0,13.6v1.5c0,2.6,2.1,4.7,4.7,4.7h7.6c2.6,0,4.7-2.1,4.7-4.7v-1.5C17.1,11.1,14.9,9,12.3,9z M8.5,1.5
	c1.9,0,3.4,1.5,3.4,3.4s-1.5,3.4-3.4,3.4S5.1,6.8,5.1,4.9C5.1,3.1,6.6,1.5,8.5,1.5z M15.5,15.3c0,1.8-1.4,3.2-3.2,3.2H4.7
	c-1.8,0-3.2-1.5-3.2-3.2v-1.5c0-1.8,1.4-3.2,3.2-3.2h7.6c1.8,0,3.2,1.4,3.2,3.2V15.3z"/>
</svg>
