<?xml version="1.0" encoding="UTF-8"?>
<!-- Generator: Adobe Illustrator 18.1.1, SVG Export Plug-In . SVG Version: 6.00 Build 0)  -->
<svg version="1.1" id="Livello_1" xmlns:sketch="http://www.bohemiancoding.com/sketch/ns" xmlns="http://www.w3.org/2000/svg" xmlns:xlink="http://www.w3.org/1999/xlink" x="0px" y="0px" viewBox="-578 971.2 260 43" enable-background="new -578 971.2 260 43" xml:space="preserve">
<g id="Welcome" sketch:type="MSPage">
	<g id="pixart-_x2B_-printing" transform="translate(-1.000000, -9.000000)" sketch:type="MSLayerGroup">
		<g enable-background="new    ">
			<path fill="#D0011B" d="M-567.2,987.6l-0.2,2.6c0.8-1.1,1.7-1.9,2.7-2.4c1-0.5,2-0.8,3.2-0.8c1.4,0,2.6,0.4,3.6,1.1     c1,0.8,1.7,1.6,1.9,2.6c0.3,1,0.4,2.7,0.4,5v12.5c0,2.7-0.2,4.6-0.5,5.8c-0.3,1.1-1,2-2,2.7c-1,0.7-2.2,1-3.6,1     c-1.1,0-2.2-0.3-3.1-0.8c-1-0.5-1.8-1.3-2.6-2.3v6.8h-9v-33.9H-567.2z M-564.6,996.2c0-1.8-0.1-2.9-0.2-3.3     c-0.1-0.4-0.5-0.6-1.1-0.6c-0.6,0-1,0.2-1.2,0.7c-0.2,0.4-0.3,1.5-0.3,3.2v12.3c0,1.8,0.1,2.9,0.3,3.4c0.2,0.4,0.6,0.7,1.2,0.7     c0.6,0,0.9-0.2,1.1-0.6c0.1-0.4,0.2-1.4,0.2-3V996.2z"/>
			<path fill="#D0011B" d="M-543.3,981.1v4.7h-9.3v-4.7H-543.3z M-543.3,987.6v29.7h-9.3v-29.7H-543.3z"/>
			<path fill="#D0011B" d="M-522.2,987.6l-3.6,14.2l4.4,15.5h-8.8c-0.9-3.9-1.5-7.3-2-10.1c-0.6,3.5-1.3,6.9-2,10.1h-7.5l3.9-15.5     l-3.9-14.2h7.5c1.2,6.1,1.9,9.5,2,10.3c0.9-5.1,1.5-8.5,2-10.3H-522.2z"/>
			<path fill="#D0011B" d="M-512.2,999.1h-8.5v-2c0-2.3,0.3-4.1,0.8-5.3c0.5-1.2,1.6-2.3,3.2-3.3c1.6-1,3.7-1.4,6.2-1.4     c3.1,0,5.4,0.5,6.9,1.6c1.5,1.1,2.5,2.4,2.8,4s0.5,4.8,0.5,9.7v14.9h-8.8v-2.6c-0.6,1.1-1.3,1.9-2.1,2.4     c-0.9,0.5-1.9,0.8-3.1,0.8c-1.6,0-3-0.4-4.3-1.3c-1.3-0.9-2-2.8-2-5.8v-2.4c0-2.2,0.3-3.7,1.1-4.5c0.7-0.8,2.4-1.7,5.2-2.8     c3-1.2,4.6-1.9,4.8-2.3c0.2-0.4,0.3-1.2,0.3-2.5c0-1.5-0.1-2.6-0.3-3c-0.2-0.5-0.6-0.7-1.2-0.7c-0.6,0-1,0.2-1.1,0.6     c-0.1,0.4-0.2,1.4-0.2,3.1V999.1z M-509.3,1003.1c-1.4,1.1-2.3,1.9-2.5,2.7c-0.2,0.7-0.3,1.7-0.3,3.1c0,1.5,0.1,2.5,0.3,3     c0.2,0.4,0.6,0.7,1.2,0.7c0.6,0,0.9-0.2,1.1-0.5c0.2-0.3,0.3-1.3,0.3-2.8V1003.1z"/>
			<path fill="#D0011B" d="M-488.2,987.6l-0.4,3.9c1.3-2.8,3.2-4.3,5.7-4.4v10.4c-1.7,0-2.9,0.2-3.6,0.7c-0.8,0.4-1.3,1.1-1.4,1.9     c-0.2,0.8-0.3,2.6-0.3,5.5v11.7h-9v-29.7H-488.2z"/>
			<path fill="#D0011B" d="M-470.5,983.6v4.7h2.4v4.7h-2.4v15.9c0,2,0.1,3,0.3,3.3c0.2,0.2,1,0.3,2.5,0.3v4.8h-3.6     c-2.1,0-3.5-0.1-4.4-0.3c-0.9-0.2-1.7-0.6-2.3-1.2c-0.7-0.6-1.1-1.3-1.3-2.1s-0.2-2.7-0.2-5.6V993h-1.9v-4.7h1.9v-4.7H-470.5z"/>
		</g>
		<g enable-background="new    ">
			<path d="M-456.2,987.6l-0.2,2.6c0.8-1.1,1.7-1.9,2.7-2.4c1-0.5,2-0.8,3.2-0.8c1.4,0,2.6,0.4,3.6,1.1c1,0.8,1.7,1.6,1.9,2.6     c0.3,1,0.4,2.7,0.4,5v12.5c0,2.7-0.2,4.6-0.5,5.8s-1,2-2,2.7c-1,0.7-2.2,1-3.6,1c-1.1,0-2.2-0.3-3.1-0.8c-1-0.5-1.8-1.3-2.6-2.3     v6.8h-9v-33.9H-456.2z M-453.6,996.2c0-1.8-0.1-2.9-0.2-3.3c-0.1-0.4-0.5-0.6-1.1-0.6c-0.6,0-1,0.2-1.2,0.7     c-0.2,0.4-0.3,1.5-0.3,3.2v12.3c0,1.8,0.1,2.9,0.3,3.4c0.2,0.4,0.6,0.7,1.2,0.7c0.6,0,0.9-0.2,1.1-0.6c0.1-0.4,0.2-1.4,0.2-3     V996.2z"/>
			<path d="M-432.6,987.6l-0.4,3.9c1.3-2.8,3.2-4.3,5.7-4.4v10.4c-1.7,0-2.9,0.2-3.6,0.7c-0.8,0.4-1.3,1.1-1.4,1.9     c-0.2,0.8-0.3,2.6-0.3,5.5v11.7h-9v-29.7H-432.6z"/>
			<path d="M-416,981.1v4.7h-9.3v-4.7H-416z M-416,987.6v29.7h-9.3v-29.7H-416z"/>
			<path d="M-403.5,987.6l-0.2,2.7c0.7-1.1,1.5-1.9,2.4-2.5c0.9-0.5,2-0.8,3.3-0.8c1.5,0,2.8,0.4,3.8,1.1c1,0.7,1.6,1.7,1.9,2.8     c0.3,1.1,0.4,3,0.4,5.6v20.8h-9v-20.5c0-2-0.1-3.3-0.2-3.7c-0.1-0.4-0.5-0.7-1.1-0.7c-0.6,0-1,0.3-1.2,0.8     c-0.2,0.5-0.2,1.9-0.2,4.1v20h-9v-29.7H-403.5z"/>
			<path d="M-379.3,983.6v4.7h2.4v4.7h-2.4v15.9c0,2,0.1,3,0.3,3.3s1,0.3,2.5,0.3v4.8h-3.6c-2.1,0-3.5-0.1-4.4-0.3     c-0.9-0.2-1.7-0.6-2.3-1.2c-0.7-0.6-1.1-1.3-1.3-2.1s-0.2-2.7-0.2-5.6V993h-1.9v-4.7h1.9v-4.7H-379.3z"/>
			<path d="M-365.5,981.1v4.7h-9.3v-4.7H-365.5z M-365.5,987.6v29.7h-9.3v-29.7H-365.5z"/>
			<path d="M-353.1,987.6l-0.2,2.7c0.7-1.1,1.5-1.9,2.4-2.5c0.9-0.5,2-0.8,3.3-0.8c1.5,0,2.8,0.4,3.8,1.1c1,0.7,1.6,1.7,1.9,2.8     c0.3,1.1,0.4,3,0.4,5.6v20.8h-9v-20.5c0-2-0.1-3.3-0.2-3.7c-0.1-0.4-0.5-0.7-1.1-0.7c-0.6,0-1,0.3-1.2,0.8     c-0.2,0.5-0.2,1.9-0.2,4.1v20h-9v-29.7H-353.1z"/>
			<path d="M-317.8,987.6v22.8c0,3.1-0.1,5.1-0.2,6s-0.6,1.9-1.5,2.9c-0.9,1-2.1,1.8-3.6,2.3c-1.5,0.5-3.5,0.8-5.8,0.8     c-2.9,0-5.2-0.5-6.9-1.5c-1.7-1-2.6-2.9-2.7-5.8h8.8c0,1.3,0.5,2,1.4,2c0.7,0,1.1-0.2,1.4-0.6c0.2-0.4,0.3-1.2,0.3-2.5v-2.2     c-0.8,0.7-1.6,1.2-2.4,1.6c-0.9,0.4-1.8,0.5-2.7,0.5c-1.6,0-3-0.3-4-1c-1.1-0.7-1.8-1.5-2.2-2.6s-0.6-2.6-0.6-4.5V995     c0-2.8,0.5-4.8,1.5-6.1c1-1.2,2.6-1.9,4.6-1.9c1.1,0,2.2,0.2,3.1,0.7c0.9,0.5,1.8,1.2,2.5,2.1l0.6-2.2H-317.8z M-326.9,995.5     c0-1.4-0.1-2.2-0.2-2.6c-0.2-0.4-0.5-0.6-1-0.6c-0.5,0-0.9,0.2-1.1,0.6c-0.2,0.4-0.3,1.3-0.3,2.5v10c0,1.3,0.1,2.2,0.2,2.6     c0.2,0.4,0.5,0.6,1,0.6c0.6,0,1-0.2,1.2-0.7s0.3-1.6,0.3-3.2V995.5z"/>
		</g>
	</g>
</g>
</svg>