<?xml version="1.0" encoding="utf-8"?>
<!-- Generator: Adobe Illustrator 26.2.1, SVG Export Plug-In . SVG Version: 6.00 Build 0)  -->
<svg version="1.1" id="Livello_1" xmlns="http://www.w3.org/2000/svg" xmlns:xlink="http://www.w3.org/1999/xlink" x="0px" y="0px"
	 viewBox="0 0 17 20.2" style="enable-background:new 0 0 17 20.2;" xml:space="preserve">
<style type="text/css">
	.st0{fill:#5F5F5E;}
</style>
<path class="st0" d="M16,14.2c-2-2.7-3.3-2.1-5-0.8c-0.4,0.3-0.7,0.5-0.9,0.6c-0.1-0.1-0.3-0.4-0.5-0.7L6,8.3C5.8,8,5.6,7.8,5.5,7.6
	C5.7,7.4,6,7.2,6.4,6.9C7.2,6.3,7.9,5.8,8.2,5c0.3-0.9,0-1.8-1-3.1c-2-2.7-3.3-2.1-5-0.8C0,2.7-1.9,7,3.3,14.1
	c2.3,3.1,4.7,5.1,7.1,5.8c0.7,0.2,1.3,0.3,1.8,0.3c1.6,0,2.6-0.6,2.9-0.9c0.8-0.6,1.5-1.1,1.8-1.9C17.2,16.4,16.9,15.5,16,14.2z
	 M15.5,16.8c-0.1,0.3-0.6,0.7-1.2,1.1c-0.3,0.2-1.5,0.9-3.4,0.4c-2.1-0.6-4.2-2.4-6.3-5.2l0,0C0,7,1.4,3.6,2.9,2.5
	C3.6,2,4,1.7,4.4,1.7S5.2,2.1,5.8,3c0.6,0.8,0.9,1.4,0.8,1.7C6.5,5,6,5.4,5.4,5.8C3.5,7.1,3.3,7.5,4.6,9.3l3.6,5
	c0.6,0.8,0.9,1.3,1.6,1.3c0.6,0.1,1.1-0.3,2-1c1.5-1.1,1.7-1.2,2.9,0.4C15.3,15.9,15.6,16.5,15.5,16.8z M10.5,4.2
	C12,3.6,13.7,4,14.6,5.3s0.9,3.1-0.2,4.2c-0.3,0.3-0.2,0.8,0.1,1.1c0.1,0.1,0.3,0.2,0.5,0.2s0.4-0.1,0.6-0.3
	c1.5-1.8,1.6-4.3,0.2-6.2s-3.8-2.5-6-1.6c-0.4,0.2-0.6,0.6-0.4,1C9.6,4.2,10.1,4.4,10.5,4.2z M11.5,9.3c0.2,0.2,0.4,0.3,0.6,0.3
	s0.3,0,0.5-0.1c0.4-0.4,0.7-0.9,0.8-1.4C13.5,7.5,13.3,7,13,6.5s-0.8-0.8-1.4-0.9S10.5,5.7,10,6C9.7,6.3,9.6,6.7,9.8,7.1
	c0.3,0.3,0.7,0.4,1.1,0.2c0.1-0.2,0.3-0.2,0.5-0.2c0.2,0,0.3,0.1,0.4,0.2s0.1,0.3,0.1,0.5s-0.1,0.3-0.2,0.4
	C11.3,8.5,11.2,9,11.5,9.3z"/>
</svg>
