<?xml version="1.0" encoding="utf-8"?>
<!-- Generator: Adobe Illustrator 26.0.3, SVG Export Plug-In . SVG Version: 6.00 Build 0)  -->
<svg version="1.1" id="Livello_1" xmlns="http://www.w3.org/2000/svg" xmlns:xlink="http://www.w3.org/1999/xlink" x="0px" y="0px"
	 viewBox="0 0 30 20" style="enable-background:new 0 0 30 20;" xml:space="preserve">
<style type="text/css">
	.st0{fill:#555555;}
</style>
<path class="st0" d="M25.8,18.6l-4.2-3.5c1.7-2.4,2.2-5.5,1.2-8.5c-1.4-4-5.1-6.6-9.1-6.6c-1,0-2.1,0.2-3.1,0.5
	c-5,1.7-7.7,7.2-6,12.2c1.4,4,5.1,6.6,9.1,6.6c1,0,2.1-0.2,3.1-0.5c1.5-0.5,2.8-1.4,3.8-2.4l4.2,3.5c0.1,0.1,0.3,0.2,0.5,0.2
	c0.2,0,0.5-0.1,0.6-0.3C26.2,19.4,26.1,18.9,25.8,18.6z M16.2,17.3c-0.8,0.3-1.7,0.4-2.6,0.4c-3.4,0-6.5-2.2-7.6-5.5
	c-0.7-2-0.5-4.2,0.4-6.1C7.3,4.2,9,2.7,11,2c0.8-0.3,1.7-0.4,2.6-0.4c3.4,0,6.5,2.2,7.6,5.5c0.7,2,0.5,4.2-0.4,6.1
	C19.8,15.1,18.2,16.6,16.2,17.3z"/>
</svg>
